<svg width="42" height="42" viewBox="0 0 42 42" fill="none" xmlns="http://www.w3.org/2000/svg">
<path d="M33.6 18.522C33.043 18.522 32.5089 18.7432 32.1151 19.1371C31.7212 19.5309 31.5 20.065 31.5 20.622V35.7C31.5 36.257 31.2788 36.7911 30.8849 37.1849C30.4911 37.5788 29.957 37.8 29.4 37.8H6.3C5.74304 37.8 5.2089 37.5788 4.81508 37.1849C4.42125 36.7911 4.2 36.257 4.2 35.7V12.6C4.2 12.043 4.42125 11.5089 4.81508 11.1151C5.2089 10.7212 5.74304 10.5 6.3 10.5H21.378C21.935 10.5 22.4691 10.2787 22.8629 9.88492C23.2568 9.4911 23.478 8.95695 23.478 8.4C23.478 7.84304 23.2568 7.3089 22.8629 6.91508C22.4691 6.52125 21.935 6.3 21.378 6.3H6.3C4.62914 6.3 3.02671 6.96375 1.84523 8.14523C0.663748 9.32671 0 10.9291 0 12.6V35.7C0 37.3709 0.663748 38.9733 1.84523 40.1548C3.02671 41.3363 4.62914 42 6.3 42H29.4C31.0709 42 32.6733 41.3363 33.8548 40.1548C35.0363 38.9733 35.7 37.3709 35.7 35.7V20.622C35.7 20.065 35.4788 19.5309 35.0849 19.1371C34.6911 18.7432 34.157 18.522 33.6 18.522ZM41.832 1.302C41.6189 0.788866 41.2111 0.381097 40.698 0.168C40.4455 0.0603938 40.1744 0.00331797 39.9 0H27.3C26.743 0 26.2089 0.221249 25.8151 0.615076C25.4212 1.0089 25.2 1.54305 25.2 2.1C25.2 2.65695 25.4212 3.1911 25.8151 3.58492C26.2089 3.97875 26.743 4.2 27.3 4.2H34.839L13.209 25.809C13.0122 26.0042 12.8559 26.2365 12.7493 26.4924C12.6427 26.7483 12.5878 27.0228 12.5878 27.3C12.5878 27.5772 12.6427 27.8517 12.7493 28.1076C12.8559 28.3635 13.0122 28.5958 13.209 28.791C13.4042 28.9878 13.6365 29.1441 13.8924 29.2507C14.1483 29.3573 14.4228 29.4122 14.7 29.4122C14.9772 29.4122 15.2517 29.3573 15.5076 29.2507C15.7635 29.1441 15.9958 28.9878 16.191 28.791L37.8 7.161V14.7C37.8 15.257 38.0212 15.7911 38.4151 16.1849C38.8089 16.5787 39.343 16.8 39.9 16.8C40.457 16.8 40.9911 16.5787 41.3849 16.1849C41.7788 15.7911 42 15.257 42 14.7V2.1C41.9967 1.82558 41.9396 1.55447 41.832 1.302Z" fill="#0B6F65"/>
</svg>
