<svg width="50" height="30" viewBox="0 0 50 30" fill="none" xmlns="http://www.w3.org/2000/svg">
<path d="M27.0469 11.375L23.0078 14.5156C20.5469 16.4375 16.9766 15.9375 15.1328 13.4062C13.3984 11.0234 13.8359 7.69529 16.125 5.84373L22.625 0.585918C21.7188 0.203106 20.7422 0.00779327 19.75 0.00779327C18.2812 -1.92276e-05 16.8516 0.437481 15.625 1.24998L10 4.99998H3.75C1.67969 4.99998 0 6.67967 0 8.74998V18.75C0 20.8203 1.67969 22.5 3.75 22.5H12.2031L19.3438 29.0156C20.875 30.414 23.2422 30.3047 24.6406 28.7734C25.0703 28.2969 25.3594 27.7422 25.5078 27.164L26.8359 28.3828C28.3594 29.7812 30.7344 29.6797 32.1328 28.1562C32.4844 27.7734 32.7422 27.3281 32.9062 26.8672C34.4219 27.8828 36.4844 27.6719 37.7578 26.2812C39.1562 24.7578 39.0547 22.3828 37.5312 20.9844L27.0469 11.375Z" fill="#48B3A9"/>
<path opacity="0.5" d="M25.2657 1.65625L17.7032 7.78125C16.4453 8.79688 16.2032 10.625 17.1563 11.9297C18.1641 13.3203 20.125 13.5938 21.4766 12.5391L29.2344 6.50781C29.7813 6.08594 30.5625 6.17969 30.9922 6.72656C31.4219 7.27344 31.3203 8.05469 30.7735 8.48438L29.1407 9.75L42.9844 22.5H46.25C48.3203 22.5 50 20.8203 50 18.75V8.75C50 6.67969 48.3203 5 46.25 5H40.3125H40H39.9453L39.6407 4.80469L33.9688 1.17188C32.7735 0.40625 31.375 0 29.9532 0C28.25 0 26.5938 0.585937 25.2657 1.65625Z" fill="#48B3A9"/>
</svg>
