<svg width="68" height="21" viewBox="0 0 68 21" fill="none" xmlns="http://www.w3.org/2000/svg">
<path d="M13.2501 0.917054V7.46483L20.7464 20.0891H14.9869L10.7451 12.1776L6.49496 20.1016H0.725098L8.21298 7.45857V0.917054H13.2501Z" fill="#F1BC6C"/>
<path d="M22.2264 3.3756C24.0189 1.45853 26.5503 0.5 29.8207 0.5C33.0912 0.5 35.624 1.45853 37.4193 3.3756C39.2103 5.29405 40.1059 7.67196 40.1059 10.5093C40.1059 13.3467 39.2103 15.7177 37.4193 17.6222C35.6254 19.5407 33.0926 20.4999 29.8207 20.4999C26.5489 20.4999 24.0175 19.5407 22.2264 17.6222C20.4339 15.7065 19.5377 13.3356 19.5377 10.5093C19.5377 7.68309 20.4339 5.30517 22.2264 3.3756ZM33.5678 6.63697C32.6813 5.65133 31.433 5.15781 29.8228 5.15642C28.2127 5.15503 26.965 5.64855 26.0799 6.63697C25.1934 7.62261 24.7502 8.90992 24.7502 10.4989C24.7502 12.0879 25.1934 13.3759 26.0799 14.3629C26.9678 15.3486 28.2155 15.8414 29.8228 15.8414C31.4302 15.8414 32.6785 15.3486 33.5678 14.3629C34.4557 13.3759 34.8989 12.0879 34.8976 10.4989C34.8962 8.90992 34.4522 7.62261 33.5657 6.63697H33.5678Z" fill="#F1BC6C"/>
<path d="M59.4529 0.917054V12.7739C59.4818 14.0234 59.2292 15.2634 58.7139 16.4023C58.2737 17.3704 57.5826 18.2033 56.712 18.815C55.8739 19.3873 54.9472 19.8178 53.969 20.0891C51.9019 20.6369 49.7276 20.6369 47.6606 20.0891C46.6824 19.8178 45.7556 19.3873 44.9176 18.815C44.047 18.2033 43.3558 17.3704 42.9157 16.4023C42.4003 15.2634 42.1478 14.0234 42.1767 12.7739V0.917054H47.2493V12.4987C47.2493 14.8203 48.4378 15.9804 50.8148 15.979C53.1917 15.9776 54.3782 14.8175 54.374 12.4987V0.917054H59.4529Z" fill="#F1BC6C"/>
<path d="M66.4815 19.8138C65.9091 20.2586 65.2047 20.5 64.4796 20.5C63.7545 20.5 63.05 20.2586 62.4777 19.8138C61.9461 19.3579 61.6802 18.6822 61.6802 17.7869C61.6802 16.8917 61.9454 16.2251 62.4756 15.7872C63.0479 15.3425 63.7524 15.101 64.4775 15.101C65.2026 15.101 65.907 15.3425 66.4794 15.7872C67.0096 16.2431 67.2747 16.9097 67.2747 17.7869C67.2747 18.6642 67.0103 19.3398 66.4815 19.8138ZM62.2856 12.9658L62.008 0.917054H66.9449L66.6715 12.972L62.2856 12.9658Z" fill="#F1BC6C"/>
</svg>
