<svg width="25" height="25" viewBox="0 0 25 25" fill="none" xmlns="http://www.w3.org/2000/svg">
<path d="M12.5 0C5.59476 0 0 5.59476 0 12.5C0 19.4052 5.59476 25 12.5 25C19.4052 25 25 19.4052 25 12.5C25 5.59476 19.4052 0 12.5 0ZM12.5 22.5806C6.93044 22.5806 2.41935 18.0696 2.41935 12.5C2.41935 6.93044 6.93044 2.41935 12.5 2.41935C18.0696 2.41935 22.5806 6.93044 22.5806 12.5C22.5806 18.0696 18.0696 22.5806 12.5 22.5806ZM17.631 9.36492L14.496 12.5L17.631 15.6351C17.8679 15.872 17.8679 16.255 17.631 16.4919L16.4919 17.631C16.255 17.8679 15.872 17.8679 15.6351 17.631L12.5 14.496L9.36492 17.631C9.12802 17.8679 8.74496 17.8679 8.50806 17.631L7.36895 16.4919C7.13206 16.255 7.13206 15.872 7.36895 15.6351L10.504 12.5L7.36895 9.36492C7.13206 9.12802 7.13206 8.74496 7.36895 8.50806L8.50806 7.36895C8.74496 7.13206 9.12802 7.13206 9.36492 7.36895L12.5 10.504L15.6351 7.36895C15.872 7.13206 16.255 7.13206 16.4919 7.36895L17.631 8.50806C17.8679 8.74496 17.8679 9.12802 17.631 9.36492Z" fill="#3A3A44"/>
</svg>
