<svg width="17" height="17" viewBox="0 0 17 17" fill="none" xmlns="http://www.w3.org/2000/svg">
<path d="M8.5 6.55391e-06C6.92236 -0.000866074 5.3446 0.0854016 3.79305 0.25881C1.96667 0.462935 0.491772 1.90158 0.276923 3.73854C-0.0923076 6.89546 -0.0923077 10.0847 0.276923 13.2416C0.491772 15.0785 1.96667 16.5172 3.79305 16.7213C5.3446 16.8947 6.92236 16.981 8.5 16.9801V15.4801C6.97799 15.481 5.45584 15.3978 3.95966 15.2306C2.81523 15.1027 1.89918 14.1994 1.76677 13.0673C1.41108 10.0262 1.41108 6.95394 1.76677 3.91279C1.89918 2.78068 2.81523 1.87743 3.95966 1.74953C5.45584 1.58231 6.97799 1.49913 8.5 1.50001V6.55391e-06Z" fill="#48B3A9"/>
<path d="M8.5 6.55391e-06C10.0776 -0.000866074 11.6554 0.0854016 13.2069 0.25881C15.0333 0.462935 16.5082 1.90158 16.7231 3.73854C17.0923 6.89546 17.0923 10.0847 16.7231 13.2416C16.5082 15.0785 15.0333 16.5172 13.2069 16.7213C11.6554 16.8947 10.0776 16.981 8.5 16.9801V15.4801C10.022 15.481 11.5442 15.3978 13.0403 15.2306C14.1848 15.1027 15.1008 14.1994 15.2332 13.0673C15.5889 10.0262 15.5889 6.95394 15.2332 3.91279C15.1008 2.78068 14.1848 1.87743 13.0403 1.74953C11.5442 1.58231 10.022 1.49913 8.5 1.50001V6.55391e-06Z" fill="#48B3A9"/>
</svg>
