<svg width="18" height="17" viewBox="0 0 18 17" fill="none" xmlns="http://www.w3.org/2000/svg">
<path d="M3.95966 1.74953C2.81523 1.87743 1.89918 2.78068 1.76677 3.91279C1.41108 6.95394 1.41108 10.0262 1.76677 13.0673C1.89918 14.1994 2.81523 15.1027 3.95966 15.2306C6.93649 15.5633 10.0161 15.5633 12.9929 15.2306C14.1374 15.1027 15.0534 14.1994 15.1858 13.0673C15.4414 10.8822 15.5133 8.68097 15.4016 6.48679C15.3988 6.43013 15.4199 6.37486 15.46 6.33474L16.4988 5.29596C16.6191 5.17573 16.8245 5.25091 16.8373 5.42047C17.0333 8.02539 16.9794 10.6444 16.6757 13.2416C16.4608 15.0785 14.9859 16.5172 13.1596 16.7213C10.072 17.0664 6.88061 17.0664 3.79305 16.7213C1.96667 16.5172 0.491772 15.0785 0.276923 13.2416C-0.0923077 10.0847 -0.0923076 6.89546 0.276923 3.73854C0.491772 1.90158 1.96667 0.462935 3.79305 0.25881C6.88061 -0.0862699 10.072 -0.0862699 13.1596 0.25881C13.8028 0.330703 14.4025 0.555733 14.9188 0.897367C15.0204 0.964592 15.0305 1.10743 14.9444 1.19358L14.1415 1.99646C14.0758 2.06214 13.9739 2.07318 13.8921 2.02932C13.6187 1.88282 13.3148 1.7855 12.9929 1.74953C10.0161 1.41682 6.93649 1.41682 3.95966 1.74953Z" fill="#48B3A9"/>
<path d="M17.5066 2.52039C17.7995 2.2275 17.7995 1.75262 17.5066 1.45973C17.2137 1.16684 16.7388 1.16684 16.446 1.45973L7.97629 9.9294L5.50662 7.45973C5.21372 7.16684 4.73885 7.16684 4.44596 7.45973C4.15306 7.75262 4.15306 8.2275 4.44596 8.52039L7.44596 11.5204C7.73885 11.8133 8.21372 11.8133 8.50662 11.5204L17.5066 2.52039Z" fill="#48B3A9"/>
</svg>
