<svg width="1470" height="1568" viewBox="0 0 1470 1568" fill="none" xmlns="http://www.w3.org/2000/svg">
<g style="mix-blend-mode:plus-lighter">
<path d="M686.542 735.503C715.702 736.625 699.417 775.391 684.678 784.003C644.736 807.339 600.118 769.809 589.61 731.772C570.813 663.734 627.563 601.139 692.134 590.003C786.895 573.661 869.49 651.9 880.406 742.964C894.956 864.34 794.632 967.612 677.221 978.002C529.472 991.076 405.434 868.227 395.745 724.311C384.011 550.008 529.369 404.913 699.59 396.004C900.19 385.505 1066.21 553.664 1074.27 750.426C1083.58 977.595 892.794 1164.82 669.765 1172C416.345 1180.16 208.151 966.455 201.881 716.849C194.846 436.829 431.21 207.352 707.047 202.005C1013.28 196.069 1263.73 455.438 1268.13 757.887C1272.98 1090.75 990.951 1362.55 662.309 1366C303.272 1369.77 10.5015 1064.68 8.01654 709.388C5.31881 323.68 333.055 9.52238 714.503 8.00571C1126.34 6.3682 1461.46 357.215 1462 765.349C1462.58 1203.9 1089.11 1560.44 654.853 1560C412.353 1559.75 178.01 1449.77 20.4713 1265.7" stroke="url(#paint0_radial_90_71)" stroke-opacity="0.15" stroke-width="16" stroke-miterlimit="5.20115" stroke-linecap="round"/>
</g>
<defs>
<radialGradient id="paint0_radial_90_71" cx="0" cy="0" r="1" gradientUnits="userSpaceOnUse" gradientTransform="translate(735 784) rotate(90) scale(776 727)">
<stop stop-color="white"/>
<stop offset="1" stop-color="white" stop-opacity="0.1"/>
</radialGradient>
</defs>
</svg>
