<svg width="790" height="223" viewBox="0 0 790 223" fill="none" xmlns="http://www.w3.org/2000/svg">
<path d="M149.15 4.73014V77.6904L237.968 218.36H169.728L119.469 130.203L69.1117 218.499H0.748047L89.4675 77.6207V4.73014H149.15Z" fill="#F1BC6C"/>
<path d="M255.504 32.1251C276.742 10.7637 306.736 0.0830078 345.485 0.0830078C384.234 0.0830078 414.244 10.7637 435.515 32.1251C456.737 53.502 467.347 79.9985 467.347 111.615C467.347 143.231 456.737 169.65 435.515 190.872C414.261 212.249 384.251 222.937 345.485 222.937C306.719 222.937 276.726 212.249 255.504 190.872C234.266 169.526 223.647 143.107 223.647 111.615C223.647 80.1224 234.266 53.6259 255.504 32.1251ZM389.882 68.4658C379.378 57.4831 364.588 51.9839 345.51 51.9684C326.432 51.953 311.649 57.4521 301.162 68.4658C290.659 79.4486 285.407 93.7928 285.407 111.498C285.407 129.204 290.659 143.556 301.162 154.554C311.682 165.537 326.465 171.028 345.51 171.028C364.555 171.028 379.345 165.537 389.882 154.554C400.402 143.556 405.654 129.204 405.637 111.498C405.621 93.7928 400.361 79.4486 389.857 68.4658H389.882Z" fill="#F1BC6C"/>
<path d="M696.578 4.73014V136.849C696.921 150.771 693.929 164.589 687.823 177.279C682.607 188.066 674.418 197.347 664.103 204.163C654.173 210.54 643.193 215.336 631.603 218.36C607.112 224.463 581.35 224.463 556.858 218.36C545.268 215.336 534.288 210.54 524.358 204.163C514.043 197.347 505.854 188.066 500.639 177.279C494.533 164.589 491.541 150.771 491.883 136.849V4.73014H551.986V133.782C551.986 159.651 566.067 172.577 594.231 172.562C622.394 172.547 636.451 159.62 636.402 133.782V4.73014H696.578Z" fill="#F1BC6C"/>
<path d="M779.856 215.293C773.075 220.248 764.728 222.938 756.137 222.938C747.545 222.938 739.199 220.248 732.417 215.293C726.119 210.212 722.969 202.683 722.969 192.707C722.969 182.732 726.11 175.304 732.393 170.424C739.174 165.469 747.521 162.779 756.112 162.779C764.704 162.779 773.05 165.469 779.832 170.424C786.114 175.505 789.255 182.933 789.255 192.707C789.255 202.482 786.122 210.01 779.856 215.293ZM730.142 138.986L726.852 4.73014H785.347L782.107 139.056L730.142 138.986Z" fill="#F1BC6C"/>
<mask id="mask0_65_1348" style="mask-type:alpha" maskUnits="userSpaceOnUse" x="0" y="0" width="790" height="223">
<path d="M149.15 4.73014V77.6904L237.968 218.36H169.728L119.469 130.203L69.1117 218.499H0.748047L89.4675 77.6207V4.73014H149.15Z" fill="#FAB958"/>
<path d="M255.504 32.1251C276.742 10.7637 306.736 0.0830078 345.485 0.0830078C384.234 0.0830078 414.244 10.7637 435.515 32.1251C456.737 53.502 467.347 79.9985 467.347 111.615C467.347 143.231 456.737 169.65 435.515 190.872C414.261 212.249 384.251 222.937 345.485 222.937C306.719 222.937 276.726 212.249 255.504 190.872C234.266 169.526 223.647 143.107 223.647 111.615C223.647 80.1224 234.266 53.6259 255.504 32.1251ZM389.882 68.4658C379.378 57.4831 364.588 51.9839 345.51 51.9684C326.432 51.953 311.649 57.4521 301.162 68.4658C290.659 79.4486 285.407 93.7928 285.407 111.498C285.407 129.204 290.659 143.556 301.162 154.554C311.682 165.537 326.465 171.028 345.51 171.028C364.555 171.028 379.345 165.537 389.882 154.554C400.402 143.556 405.654 129.204 405.637 111.498C405.621 93.7928 400.361 79.4486 389.857 68.4658H389.882Z" fill="#FAB958"/>
<path d="M696.578 4.73014V136.849C696.921 150.771 693.929 164.589 687.823 177.279C682.607 188.066 674.418 197.347 664.103 204.163C654.173 210.54 643.193 215.336 631.603 218.36C607.112 224.463 581.35 224.463 556.858 218.36C545.268 215.336 534.288 210.54 524.358 204.163C514.043 197.347 505.854 188.066 500.639 177.279C494.533 164.589 491.541 150.771 491.883 136.849V4.73014H551.986V133.782C551.986 159.651 566.067 172.577 594.231 172.562C622.394 172.547 636.451 159.62 636.402 133.782V4.73014H696.578Z" fill="#FAB958"/>
<path d="M779.856 215.293C773.075 220.248 764.728 222.938 756.137 222.938C747.545 222.938 739.199 220.248 732.417 215.293C726.119 210.212 722.969 202.683 722.969 192.707C722.969 182.732 726.11 175.304 732.393 170.424C739.174 165.469 747.521 162.779 756.112 162.779C764.704 162.779 773.05 165.469 779.832 170.424C786.114 175.505 789.255 182.933 789.255 192.707C789.255 202.482 786.122 210.01 779.856 215.293ZM730.142 138.986L726.852 4.73014H785.347L782.107 139.056L730.142 138.986Z" fill="#FAB958"/>
</mask>
<g mask="url(#mask0_65_1348)">
<g style="mix-blend-mode:plus-darker" filter="url(#filter0_f_65_1348)">
<path d="M309.694 129.445C290.973 119.493 258.055 84.6192 243.936 68.4265V2.66821L367.455 -143.066C450.887 -138.327 620.594 -127.308 631.969 -121.147C643.343 -114.986 636.708 -57.9558 631.969 -30.2109C617.356 2.66821 585.938 68.4265 577.17 68.4265C566.21 68.4265 559.99 98.0474 544.291 112.265C528.592 126.483 501.933 141.886 477.052 152.846C457.146 161.614 431.238 129.445 420.772 112.265C416.033 117.992 403.118 131.934 389.374 141.886C372.194 154.327 333.094 141.886 309.694 129.445Z" fill="black" fill-opacity="0.35"/>
</g>
</g>
<defs>
<filter id="filter0_f_65_1348" x="184.936" y="-202.066" width="512.313" height="415.398" filterUnits="userSpaceOnUse" color-interpolation-filters="sRGB">
<feFlood flood-opacity="0" result="BackgroundImageFix"/>
<feBlend mode="normal" in="SourceGraphic" in2="BackgroundImageFix" result="shape"/>
<feGaussianBlur stdDeviation="29.5" result="effect1_foregroundBlur_65_1348"/>
</filter>
</defs>
</svg>
